vlada SILVERDUST
[img]http://bender1.zikuka.com/img/2009/10/03/6cfc687aba4b0056e6a90f59b6f08c4a/image22011453.jpg[/img]

[img]http://bender1.zikuka.com/img/2009/10/03/58ba04e6ec58d0e5a43aff0051429906/image22013718.jpg[/img]

[img]http://bender1.zikuka.com/img/2009/10/03/a2bd59101ae0499cb0be501b1d1c677e/image22015734.jpg[/img]

[img]http://bender1.zikuka.com/img/2009/10/03/9d8bc90517b0dc4be780b4e87a5e6aa3/image22017812.jpg[/img]

[img]http://bender1.zikuka.com/img/2009/10/03/17b0b1824ea0f7bb2371f669b15d4d71/image22020046.jpg[/img]

[img]http://bender1.zikuka.com/img/2009/10/03/8204897c38585447164143f43d94afa0/image22022734.jpg[/img]

[img]http://bender1.zikuka.com/img/2009/10/03/5087915ccce784d14e0a5b8cd975e4df/image22024515.jpg[/img]

[img]http://bender1.zikuka.com/img/2009/10/03/62d1b42625ff7c0ea233c4a97ddc6258/image22027937.jpg[/img]

[img]http://bender1.zikuka.com/img/2009/10/03/0b86bac690669ffc52810564b35fbd20/image22030953.jpg[/img]

[img]http://bender1.zikuka.com/img/2009/10/03/518cf5849f535ed633456259ec43b5d3/image22034796.jpg[/img]

[img]http://bender1.zikuka.com/img/2009/10/03/b9a4f1ef24fcb651e5840071296ea66b/image22037156.jpg[/img]

[img]http://bender1.zikuka.com/img/2009/10/03/16da5d7fd13be33c153233fdcdac7453/image22040609.jpg[/img]

[img]http://bender1.zikuka.com/img/2009/10/03/b015ff5fd252418479fc382b91bbab13/image22043046.jpg[/img]

[img]http://bender1.zikuka.com/img/2009/10/03/be2b79668014c79128d0273457013a93/image22045390.jpg[/img]

[img]http://bender1.zikuka.com/img/2009/10/03/44a12c85a61ca2dfd5ee2cfbbc1a9e87/image22048125.jpg[/img]

[img]http://bender1.zikuka.com/img/2009/10/03/29b4f35b12f99b8be6181cd78773cbf2/image22050265.jpg[/img]

[img]http://bender1.zikuka.com/img/2009/10/03/11681dc5e7754594f619fd4e614e731b/image22051984.jpg[/img]

[img]http://bender1.zikuka.com/img/2009/10/03/4097ad1295fdcc1f687bf1d742010614/image22053593.jpg[/img]

[img]http://bender1.zikuka.com/img/2009/10/03/92a34e5ed8219b046b8a6f7cddfd4f9b/image22056046.jpg[/img]

[img]http://bender1.zikuka.com/img/2009/10/03/94b28f03c71db72c8a91cdf46c09bbc0/image22059468.jpg[/img]

[img]http://bender1.zikuka.com/img/2009/10/03/a43c078d54326ea6e39219f2a3839d49/image22061421.jpg[/img]

[img]http://bender1.zikuka.com/img/2009/10/03/7583ccf8b26df1210eebfb91513f38bf/image22064484.jpg[/img]

[img]http://bender1.zikuka.com/img/2009/10/03/de0a06b5e807b4506433bc7c8fb55768/image22068375.jpg[/img]

[img]http://bender1.zikuka.com/img/2009/10/03/6f04bf2e1ddfaa086848a4732232f614/image22070984.jpg[/img]

[img]http://bender1.zikuka.com/img/2009/10/03/ef315320a14ae79291faa7a1c339b118/image22073109.jpg[/img]

[img]http://bender1.zikuka.com/img/2009/10/03/e4ad9aef9f6ba6558821c5c6aa6ea46a/image22075000.jpg[/img]

[img]http://bender1.zikuka.com/img/2009/10/03/ccae3172f27584e52ca911d853eaac29/image22077187.jpg[/img]

[img]http://bender1.zikuka.com/img/2009/10/03/ab3f2b40413b4c4577baed806740a89b/image22079203.jpg[/img]

[img]http://bender1.zikuka.com/img/2009/10/03/2da90e536a440e283417f51e5907355f/image22081406.jpg[/img]

[img]http://bender1.zikuka.com/img/2009/10/03/df8d82177558edac91494f0aa546e061/image22083515.jpg[/img]

[img]http://bender1.zikuka.com/img/2009/10/03/d0c2d213b062f3e4e8df5d374fc30d04/image22087703.jpg[/img]

[img]http://bender1.zikuka.com/img/2009/10/03/19eaa14d9b0a9bf35a65c6bf5f8bfc0a/image22089062.jpg[/img]

[img]http://bender1.zikuka.com/img/2009/10/03/15beea007c80effd50fa5544298878aa/image22090812.jpg[/img]

[img]http://bender1.zikuka.com/img/2009/10/03/c7660ae2c3fe58a8a4008187bf3d8410/image22093109.jpg[/img]

[img]http://bender1.zikuka.com/img/2009/10/03/98d8e1a91b4c106b9e9019905f95e88b/image22095015.jpg[/img]

[img]http://bender1.zikuka.com/img/2009/10/03/076a5b7586cef211a15257efee58045f/image22096718.jpg[/img]
Format                           : MPEG-4 Visual
Format profile                   : Streaming Video@L1
Format settings, BVOP            : Yes
Format settings, QPel            : No
Format settings, GMC             : No warppoints
Format settings, Matrix          : Default
Muxing mode                      : Packed bitstream
Codec ID                         : XVID
Codec ID/Hint                    : XviD
Duration                         : 22mn 57s
Bit rate                         : 894 Kbps
Width                            : 560 pixels
Height                           : 420 pixels
Display aspect ratio             : 4/3
Frame rate                       : 25.000 fps
Resolution                       : 24 bits
Colorimetry                      : 4:2:0
Scan type                        : Progressive
Bits/(Pixel*Frame)               : 0.152
Stream size                      : 147 MiB (92%)
Writing library                  : XviD 

Audio
Format                           : MPEG Audio
Format version                   : Version 1
Format profile                   : Layer 3
Codec ID                         : 55
Codec ID/Hint                    : MP3
Duration                         : 22mn 57s
Bit rate mode                    : Constant
Bit rate                         : 64.0 Kbps
Channel(s)                       : 2 channels
Sampling rate                    : 48.0 KHz
Resolution                       : 16 bits
Stream size                      : 10.5 MiB (7%)
Alignment                        : Split accross interleaves
Interleave, duration             : 40 ms (1.00 video frame)
Interleave, preload duration     : 500 ms
Screens are posted for this file,how-ever some sites do not allow all picture hosts(and i do not have time upload pics to a certain host for a specific site).
I will not respond in this thread to any comments from now on(unless you are a member of a private site or are a respected member of a public site).
Thankyou to all the REAL contributors to the sites who keep the faith everyday.
Leechers,Ass-wipes,Zero posters keep on moaning into our deaf ears.
Contact? Old Skool-respected only (you know how);-)
[url]http://www.fhqhosting.com/ui/1ggggg.swf[/url]
[IMG]http://i43.servimg.com/u/f43/12/33/79/02/potpis10.gif[/IMG]
[IMG]http://www.myspaceninja.com/images/gg/glitterhkisses.gif[/IMG]